<svg width="370" height="155" viewBox="0 0 370 155" fill="none" xmlns="http://www.w3.org/2000/svg">
<rect width="370" height="155" rx="7" fill="white"/>
<path d="M150.755 69.8072C170.403 84.6125 175.754 96.4468 176.742 109.341C164.863 112.204 151.225 110.065 131.576 95.2594C111.928 80.4542 100.293 62.7545 105.589 55.7261C110.885 48.6976 131.107 55.002 150.755 69.8072Z" fill="#2B8F17"/>
<path d="M200.869 64.5456C200.869 89.1475 194.638 100.543 184.934 109.091C175.498 101.327 169 89.1475 169 64.5456C169 39.9438 176.134 20 184.934 20C193.735 20 200.869 39.9438 200.869 64.5456Z" fill="#5EC61E"/>
<path d="M238.755 95.2599C219.107 110.066 206.256 111.947 193.589 109.342C194.111 97.1338 199.928 84.614 219.576 69.8082C239.224 55.0025 259.445 48.6975 264.741 55.7258C270.037 62.7541 258.403 80.4541 238.755 95.2599Z" fill="#288A23"/>
</svg>
